<svg width="256" height="256" viewBox="0 0 256 256" fill="none" xmlns="http://www.w3.org/2000/svg">
<rect width="256" height="256" rx="128" fill="black"/>
<g filter="url(#filter0_d_131_2)">
<path d="M156.4 74.2C153.467 74.3333 150.933 74.7333 148.8 75.4C146.667 76.0667 145 77.6 143.8 80C142.733 82.2667 142.2 86.1333 142.2 91.6V168.2C142.2 171.8 142.133 175.267 142 178.6C141.867 181.933 141.667 184.467 141.4 186.2C143.533 185.933 146.2 185.8 149.4 185.8C152.733 185.667 155.067 185.6 156.4 185.6V201H99V187.8C102.067 187.667 104.6 187.267 106.6 186.6C108.733 185.933 110.333 184.4 111.4 182C112.6 179.6 113.2 175.733 113.2 170.4V93.8C113.2 90.2 113.267 86.7333 113.4 83.4C113.667 80.0667 113.867 77.5333 114 75.8C111.867 75.9333 109.2 76.0667 106 76.2C102.8 76.2 100.467 76.2667 99 76.4V61H156.4V74.2Z" fill="white"/>
</g>
<defs>
<filter id="filter0_d_131_2" x="95" y="61" width="65.3999" height="148" filterUnits="userSpaceOnUse" color-interpolation-filters="sRGB">
<feFlood flood-opacity="0" result="BackgroundImageFix"/>
<feColorMatrix in="SourceAlpha" type="matrix" values="0 0 0 0 0 0 0 0 0 0 0 0 0 0 0 0 0 0 127 0" result="hardAlpha"/>
<feOffset dy="4"/>
<feGaussianBlur stdDeviation="2"/>
<feComposite in2="hardAlpha" operator="out"/>
<feColorMatrix type="matrix" values="0 0 0 0 0 0 0 0 0 0 0 0 0 0 0 0 0 0 0.25 0"/>
<feBlend mode="normal" in2="BackgroundImageFix" result="effect1_dropShadow_131_2"/>
<feBlend mode="normal" in="SourceGraphic" in2="effect1_dropShadow_131_2" result="shape"/>
</filter>
</defs>
</svg>
